<?xml version="1.0" encoding="utf-8"?>
<!-- Generator: Adobe Illustrator 16.0.0, SVG Export Plug-In . SVG Version: 6.00 Build 0)  -->
<!DOCTYPE svg PUBLIC "-//W3C//DTD SVG 1.1//EN" "http://www.w3.org/Graphics/SVG/1.1/DTD/svg11.dtd">
<svg version="1.1" id="Layer_1" xmlns="http://www.w3.org/2000/svg" xmlns:xlink="http://www.w3.org/1999/xlink" x="0px" y="0px"
	 width="32.668px" height="27.184px" viewBox="0 0 32.668 27.184" enable-background="new 0 0 32.668 27.184" xml:space="preserve">
<g>
	<g>
		<defs>
			<rect id="SVGID_1_" y="0" width="32.667" height="27.184"/>
		</defs>
		<clipPath id="SVGID_2_">
			<use xlink:href="#SVGID_1_"  overflow="visible"/>
		</clipPath>
		<path clip-path="url(#SVGID_2_)" fill="#FFFFFF" d="M26.171,9.241c0.308,0,0.562,0.255,0.562,0.563
			c0,0.313-0.254,0.568-0.562,0.568c-0.315,0-0.565-0.255-0.565-0.568C25.605,9.496,25.855,9.241,26.171,9.241 M23.611,9.246
			c-0.633,0-1.146,0.511-1.146,1.149c0,0.633,0.516,1.147,1.146,1.147c0.64,0,1.15-0.515,1.15-1.147
			C24.762,9.757,24.251,9.246,23.611,9.246 M24.766,7.71c0,0.426,0.34,0.766,0.766,0.766c0.423,0,0.767-0.34,0.767-0.766
			c0-0.42-0.344-0.766-0.767-0.766C25.105,6.944,24.766,7.29,24.766,7.71 M32.311,10.283c-0.283,0.282-0.744,0.282-1.031,0
			l-0.355-0.355l-9.431,9.437l-4.852-8.155l7.785-7.785L24.07,3.069c-0.289-0.283-0.281-0.745,0-1.027
			c0.279-0.28,0.744-0.287,1.029,0l7.209,7.21C32.598,9.533,32.598,9.996,32.311,10.283 M29.839,8.844L25.51,4.509l-6.021,6.057
			l-1.209,1.213h8.652L29.839,8.844z M11.416,16.541c0,0.664,0.542,1.202,1.201,1.202c0.665,0,1.207-0.538,1.207-1.202
			c0-0.665-0.542-1.202-1.207-1.202C11.958,15.339,11.416,15.876,11.416,16.541 M9.177,14.717c-0.648,0-1.169,0.527-1.169,1.171
			c0,0.647,0.527,1.175,1.169,1.175c0.649,0,1.175-0.526,1.175-1.175C10.352,15.244,9.826,14.717,9.177,14.717 M12.479,13.824
			c0-0.474-0.383-0.861-0.856-0.861s-0.862,0.388-0.862,0.861c0,0.473,0.389,0.862,0.862,0.862S12.479,14.297,12.479,13.824
			 M21.618,21.703c0.729,2.165-0.073,4.174-2.402,4.174H2.664c-2.328,0-3.132-1.986-2.404-4.151c0,0,2.872-5.35,7.545-13.027V4.255
			H7.518c-0.42,0-0.76-0.341-0.76-0.761c0-0.416,0.346-0.756,0.76-0.756H8.72L8.008,0h5.816l-0.717,2.738h1.26
			c0.414,0,0.754,0.34,0.754,0.756c-0.005,0.42-0.34,0.761-0.76,0.761h-0.286v4.443C18.748,16.376,21.618,21.703,21.618,21.703
			 M18.119,18.802c-0.323-0.629-4.199-7.359-5.391-9.3l-0.18-0.304H9.331l-0.18,0.304c-1.213,1.983-4.886,8.404-5.296,9.098
			c-0.027,0.058-0.064,0.128-0.101,0.202H18.119z"/>
	</g>
</g>
</svg>
