<?xml version="1.0" encoding="utf-8"?>
<!-- Generator: Adobe Illustrator 21.0.0, SVG Export Plug-In . SVG Version: 6.00 Build 0)  -->
<svg version="1.1" id="Layer_1" xmlns="http://www.w3.org/2000/svg" xmlns:xlink="http://www.w3.org/1999/xlink" x="0px" y="0px"
	 viewBox="0 0 68 68" style="enable-background:new 0 0 68 68;" xml:space="preserve">
<style type="text/css">
	.st0{opacity:0.3;}
	.st1{fill:#2B2B2B;}
	.st2{fill:#2F9AC9;}
	.st3{fill:#DA1803;}
	.st4{fill:#FFFFFF;}
</style>
<g class="st0">
	<g>
		<path class="st1" d="M66.7,8.4v59.3L0.3,1.3h59.3C63.5,1.3,66.7,4.5,66.7,8.4z"/>
	</g>
</g>
<g>
	<g>
		<path class="st2" d="M355.9,662.5h112L342.5,788V676C342.5,668.5,348.5,662.5,355.9,662.5z"/>
	</g>
</g>
<g>
	<g>
		<path class="st3" d="M68.7,7.4v59.3L2.3,0.3h59.3C65.5,0.3,68.7,3.5,68.7,7.4z"/>
	</g>
</g>
<g>
	<g>
		<path class="st4" d="M42,30.8v0.8c0,0.4,0.3,0.8,0.8,0.8h22.8c0.4,0,0.8-0.3,0.8-0.8v-0.8c0-1.8-1.5-3.3-3.3-3.3h-4.9v-0.8
			c0-1.3-1.1-2.4-2.4-2.4h-3.3c-1.3,0-2.4,1.1-2.4,2.4v0.8h-4.9C43.4,27.5,41.9,28.9,42,30.8z"/>
	</g>
</g>
<g>
	<g>
		<path class="st4" d="M48.5,15.2c0,1,0.2,1.9,0.7,2.8c1,1.7,1.6,3.2,2,4.6l0,0h5.9c0.5-1.6,1-3,1.8-4.1c0.9-1.3,1.2-2.9,0.9-4.4
			c-0.5-2.3-2.3-4.2-4.6-4.6c-1.7-0.3-3.4,0.1-4.7,1.2S48.4,13.5,48.5,15.2z"/>
	</g>
</g>
<g>
	<g>
		<path class="st4" d="M43.6,34v0.8c0,1.3,1.1,2.4,2.4,2.4h16.3c1.3,0,2.4-1.1,2.4-2.4V34H43.6z"/>
	</g>
</g>
<path class="st4" d="M40.5,25.4c-3.7,0.8-7.6-0.6-9.9-3.9c-3.1-4.4-2-10.4,2.4-13.5c3.9-2.7,9.2-2.1,12.4,1.2
	c-0.2,0-0.3,0.1-0.5,0.1c-0.7,0-1.5,0.1-2.2,0.2c-2.6-1.7-6-1.8-8.7,0.1c-3.5,2.4-4.4,7.3-1.9,10.8c1.9,2.7,5.2,3.8,8.2,3.1
	C40.4,24.2,40.3,24.9,40.5,25.4z"/>
<path class="st4" d="M34.2,18.1c0.1,0.2,0.7,0.9,1.6,1.9c1,1.2,2.1,2.5,2.2,2.6c0.2,0.3,0.4,0.1,0.8-0.6c0.5-1,1.5-3.2,3-5.2
	c1.4-2,3.6-4.2,4.1-4.6c0.5-0.4,0.8-0.7,0.4-0.8c-0.3-0.1-3,1.8-4.6,3.4c-1.7,1.8-3.5,4.8-3.9,4.9c-0.4,0.1-2.1-1.3-2.6-1.6
	C34.6,17.7,33.9,17.6,34.2,18.1z"/>
</svg>
